<mxfile host="65bd71144e">
    <diagram id="8tawhGnMj8ck7dc2TSjs" name="Page-1">
        <mxGraphModel dx="1165" dy="667" grid="1" gridSize="10" guides="1" tooltips="1" connect="1" arrows="1" fold="1" page="1" pageScale="1" pageWidth="850" pageHeight="1100" math="0" shadow="0">
            <root>
                <mxCell id="0"/>
                <mxCell id="1" parent="0"/>
                <mxCell id="2" value="&lt;font style=&quot;font-size: 24px&quot;&gt;GoalTube&lt;/font&gt;" style="whiteSpace=wrap;html=1;" vertex="1" parent="1">
                    <mxGeometry x="360" y="40" width="120" height="40" as="geometry"/>
                </mxCell>
                <mxCell id="3" value="&lt;font&gt;&lt;font style=&quot;font-size: 14px&quot;&gt;1. Add youtube playlists&lt;br&gt;2. Wait for admin approval&lt;br&gt;3. Users can watch the videos and take a quiz&lt;br&gt;3. Get certified to watch approved playlists&amp;nbsp;&lt;/font&gt;&lt;br&gt;&lt;/font&gt;" style="whiteSpace=wrap;html=1;fontSize=24;" vertex="1" parent="1">
                    <mxGeometry x="80" y="200" width="180" height="200" as="geometry"/>
                </mxCell>
                <mxCell id="4" value="Mobile App" style="whiteSpace=wrap;html=1;fontSize=14;" vertex="1" parent="1">
                    <mxGeometry x="80" y="160" width="180" height="40" as="geometry"/>
                </mxCell>
                <mxCell id="6" value="Common&lt;br&gt;Database&lt;br&gt;(Firebase)" style="shape=cylinder3;whiteSpace=wrap;html=1;boundedLbl=1;backgroundOutline=1;size=15;fontSize=14;" vertex="1" parent="1">
                    <mxGeometry x="490" y="450" width="90" height="130" as="geometry"/>
                </mxCell>
                <mxCell id="12" value="&lt;font&gt;&lt;font style=&quot;font-size: 14px&quot;&gt;1. All the playlists submitted by users would be approved by the admin.&lt;br&gt;&lt;/font&gt;&lt;font size=&quot;3&quot;&gt;2. Admin can also get statistics related to the playlists and infographics data.&lt;/font&gt;&lt;br&gt;&lt;/font&gt;" style="whiteSpace=wrap;html=1;fontSize=24;" vertex="1" parent="1">
                    <mxGeometry x="700" y="200" width="280" height="120" as="geometry"/>
                </mxCell>
                <mxCell id="13" value="Admin Panel" style="whiteSpace=wrap;html=1;fontSize=14;" vertex="1" parent="1">
                    <mxGeometry x="700" y="160" width="280" height="40" as="geometry"/>
                </mxCell>
                <mxCell id="14" value="&lt;font&gt;&lt;span style=&quot;font-size: 14px&quot;&gt;1. ML is used to create the questions for the quiz&lt;/span&gt;&lt;br&gt;&lt;/font&gt;" style="whiteSpace=wrap;html=1;fontSize=24;" vertex="1" parent="1">
                    <mxGeometry x="330" y="200" width="180" height="100" as="geometry"/>
                </mxCell>
                <mxCell id="15" value="Machine Learing" style="whiteSpace=wrap;html=1;fontSize=14;" vertex="1" parent="1">
                    <mxGeometry x="330" y="160" width="180" height="40" as="geometry"/>
                </mxCell>
            </root>
        </mxGraphModel>
    </diagram>
</mxfile>